<svg width="55" height="55" viewBox="0 0 55 55" fill="none" xmlns="http://www.w3.org/2000/svg">
<path d="M54.6729 27.3833C54.6729 42.295 42.5846 54.3833 27.6729 54.3833C12.7612 54.3833 0.672852 42.295 0.672852 27.3833C0.672852 12.4716 12.7612 0.383301 27.6729 0.383301C42.5846 0.383301 54.6729 12.4716 54.6729 27.3833Z" fill="url(#paint0_linear_601_1355)"/>
<path d="M24.9612 18.9539L27.673 14.257L30.3848 18.9539H24.9612ZM36.329 29.2496L33.6173 33.9463H39.0406L36.329 29.2496ZM33.6173 20.8203L36.329 25.517L39.0407 20.8203H33.6173ZM31.4623 33.9463L35.2515 27.3833L31.4623 20.8203H23.8836L20.0945 27.3833L23.8837 33.9463H31.4623ZM24.9612 35.8127L27.673 40.5096L30.3848 35.8127H24.9612ZM21.7287 33.9463L19.017 29.2496L16.3053 33.9463H21.7287ZM37.4065 27.3833L41.5901 34.6296V20.137L37.4065 27.3833ZM14.4388 35.8127L27.1343 43.3091L22.8062 35.8127H14.4388ZM13.7559 20.137V34.6295L17.9395 27.3833L13.7559 20.137ZM16.3054 20.8203L19.0171 25.517L21.7288 20.8203H16.3054ZM28.2117 43.3091L40.9072 35.8127H32.5398L28.2117 43.3091ZM40.9072 18.9539L28.2117 11.4575L32.5397 18.9539H40.9072ZM27.1343 11.4575L14.4388 18.9539H22.8061L27.1343 11.4575Z" fill="url(#paint1_linear_601_1355)"/>
<defs>
<linearGradient id="paint0_linear_601_1355" x1="27.6729" y1="54.3833" x2="27.6729" y2="-8.61666" gradientUnits="userSpaceOnUse">
<stop stop-color="#FFC8D1"/>
<stop offset="1" stop-color="#FFF6F7"/>
</linearGradient>
<linearGradient id="paint1_linear_601_1355" x1="27.673" y1="43.3091" x2="27.673" y2="11.4575" gradientUnits="userSpaceOnUse">
<stop stop-color="#FFA68D"/>
<stop offset="1" stop-color="#FD3A84"/>
</linearGradient>
</defs>
</svg>
