<svg width="55" height="55" viewBox="0 0 55 55" fill="none" xmlns="http://www.w3.org/2000/svg">
<path d="M54.6729 27.3833C54.6729 42.295 42.5845 54.3833 27.6729 54.3833C12.7612 54.3833 0.672852 42.295 0.672852 27.3833C0.672852 12.4716 12.7612 0.383301 27.6729 0.383301C42.5845 0.383301 54.6729 12.4716 54.6729 27.3833Z" fill="url(#paint0_linear_601_109)"/>
<path d="M24.4229 20.7718L27.6729 15.9172L30.9228 20.7718H24.4229ZM43.5986 20.7718L38.8169 14.2008L34.418 20.7718H43.5986ZM27.1746 13.3066H18.176L22.6753 20.0275L27.1746 13.3066ZM37.1697 13.3066H28.1711L32.6704 20.0275L37.1697 13.3066ZM16.5288 14.2008L11.7471 20.7718H20.9277L16.5288 14.2008ZM23.8813 22.6381L27.673 37.2702L31.4648 22.6381H23.8813ZM28.5154 41.4591L43.5986 22.6381H33.3927L28.5154 41.4591ZM11.7471 22.6381L26.8307 41.4596L21.9533 22.6381H11.7471Z" fill="url(#paint1_linear_601_109)"/>
<defs>
<linearGradient id="paint0_linear_601_109" x1="27.6729" y1="54.3833" x2="27.6729" y2="-8.61666" gradientUnits="userSpaceOnUse">
<stop stop-color="#C3FFE8"/>
<stop offset="0.9973" stop-color="#F0FFF4"/>
</linearGradient>
<linearGradient id="paint1_linear_601_109" x1="27.6729" y1="41.4596" x2="27.6729" y2="13.3066" gradientUnits="userSpaceOnUse">
<stop stop-color="#9CFFAC"/>
<stop offset="1" stop-color="#00B59C"/>
</linearGradient>
</defs>
</svg>
