<svg width="16" height="14" viewBox="0 0 16 14" fill="none" xmlns="http://www.w3.org/2000/svg">
<path d="M5.84501 0.572781C4.58501 0.566115 3.35835 1.77945 3.91835 3.28611H1.80501C1.45139 3.28611 1.11225 3.42659 0.862204 3.67664C0.612155 3.92669 0.47168 4.26583 0.47168 4.61945V5.95278C0.47168 6.12959 0.541918 6.29916 0.666942 6.42419C0.791966 6.54921 0.961535 6.61945 1.13835 6.61945H7.13835V4.61945H8.47168V6.61945H14.4717C14.6485 6.61945 14.8181 6.54921 14.9431 6.42419C15.0681 6.29916 15.1383 6.12959 15.1383 5.95278V4.61945C15.1383 4.26583 14.9979 3.92669 14.7478 3.67664C14.4978 3.42659 14.1586 3.28611 13.805 3.28611H11.6917C12.4717 1.10611 9.53835 -0.433885 8.18501 1.44611L7.80501 1.95278L7.42501 1.43278C7.00501 0.839448 6.42501 0.579448 5.84501 0.572781ZM5.80501 1.95278C6.39835 1.95278 6.69835 2.67278 6.27835 3.09278C5.85835 3.51278 5.13835 3.21278 5.13835 2.61945C5.13835 2.44264 5.20858 2.27307 5.33361 2.14804C5.45863 2.02302 5.6282 1.95278 5.80501 1.95278ZM9.80501 1.95278C10.3983 1.95278 10.6983 2.67278 10.2783 3.09278C9.85835 3.51278 9.13835 3.21278 9.13835 2.61945C9.13835 2.44264 9.20858 2.27307 9.33361 2.14804C9.45863 2.02302 9.6282 1.95278 9.80501 1.95278ZM1.13835 7.28611V12.6194C1.13835 12.9731 1.27882 13.3122 1.52887 13.5623C1.77892 13.8123 2.11806 13.9528 2.47168 13.9528H13.1383C13.492 13.9528 13.8311 13.8123 14.0812 13.5623C14.3312 13.3122 14.4717 12.9731 14.4717 12.6194V7.28611H8.47168V12.6194H7.13835V7.28611H1.13835Z" fill="#191919"/>
</svg>
