<svg width="55" height="55" viewBox="0 0 55 55" fill="none" xmlns="http://www.w3.org/2000/svg">
<path d="M54.6729 27.3833C54.6729 42.295 42.5845 54.3833 27.6729 54.3833C12.7612 54.3833 0.672852 42.295 0.672852 27.3833C0.672852 12.4716 12.7612 0.383301 27.6729 0.383301C42.5845 0.383301 54.6729 12.4716 54.6729 27.3833Z" fill="url(#paint0_linear_601_1366)"/>
<path d="M27.6728 19.1096L21.7629 15.1904L27.1571 11.6132C27.4697 11.406 27.876 11.406 28.1886 11.6132L33.5828 15.1904L27.6728 19.1096ZM26.7396 20.7301L21.7628 17.4297V20.1538L26.7396 25.1307V20.7301ZM28.606 20.7301V25.1307L33.5829 20.1538V17.4297L28.606 20.7301ZM21.7629 39.5765L27.1571 43.1537C27.4697 43.361 27.876 43.361 28.1886 43.1537L33.5828 39.5765L27.6728 35.6572L21.7629 39.5765ZM21.7629 37.3371L26.7397 34.0367V29.6361L21.7629 34.613V37.3371ZM28.606 34.0367L33.5829 37.3371V34.613L28.606 29.6361V34.0367ZM15.4797 21.4735L11.9025 26.8677C11.6953 27.1803 11.6953 27.5865 11.9025 27.8992L15.4797 33.2934L19.399 27.3834L15.4797 21.4735ZM21.0195 28.3166L17.7191 33.2935H20.4433L25.4201 28.3166H21.0195ZM25.4201 26.4502L20.4433 21.4734H17.7191L21.0195 26.4502H25.4201ZM43.4432 26.8677L39.866 21.4735L35.9466 27.3834L39.8659 33.2934L43.443 27.8992C43.6504 27.5865 43.6504 27.1803 43.4432 26.8677ZM29.9255 28.3166L34.9024 33.2935H37.6266L34.3261 28.3166H29.9255ZM34.3261 26.4502L37.6266 21.4734H34.9024L29.9255 26.4502H34.3261Z" fill="url(#paint1_linear_601_1366)"/>
<defs>
<linearGradient id="paint0_linear_601_1366" x1="27.6729" y1="54.3833" x2="27.6729" y2="-8.61666" gradientUnits="userSpaceOnUse">
<stop stop-color="#ADDCFF"/>
<stop offset="0.5028" stop-color="#EAF6FF"/>
<stop offset="1" stop-color="#EAF6FF"/>
</linearGradient>
<linearGradient id="paint1_linear_601_1366" x1="27.6728" y1="43.3092" x2="27.6728" y2="11.4576" gradientUnits="userSpaceOnUse">
<stop stop-color="#00C0FF"/>
<stop offset="1" stop-color="#5558FF"/>
</linearGradient>
</defs>
</svg>
