<svg width="32" height="32" viewBox="0 0 32 32" fill="none" xmlns="http://www.w3.org/2000/svg">
<path d="M19.3992 9.09497H12.6081C10.6739 9.09497 9.09521 10.6665 9.09521 12.6079V19.399C9.09521 21.3332 10.6668 22.9119 12.6081 22.9119H19.3992C21.3334 22.9119 22.9121 21.3403 22.9121 19.399V12.6079C22.905 10.6665 21.3334 9.09497 19.3992 9.09497ZM16.0001 20.5439C13.497 20.5439 11.4561 18.503 11.4561 15.9999C11.4561 13.4967 13.497 11.4559 16.0001 11.4559C18.5032 11.4559 20.5441 13.4967 20.5441 15.9999C20.5441 18.503 18.5032 20.5439 16.0001 20.5439ZM20.7717 11.9607C20.345 11.9607 20.0037 11.6194 20.0037 11.1927C20.0037 10.7661 20.345 10.4247 20.7717 10.4247C21.1983 10.4247 21.5397 10.7661 21.5397 11.1927C21.5397 11.6194 21.1983 11.9607 20.7717 11.9607Z" fill="#191919"/>
<path d="M18.7623 16.0334C18.7806 14.5096 17.5601 13.2595 16.0363 13.2412C14.5125 13.2229 13.2623 14.4434 13.244 15.9672C13.2258 17.491 14.4462 18.7411 15.97 18.7594C17.4939 18.7777 18.744 17.5572 18.7623 16.0334Z" fill="#191919"/>
<path d="M16 0C7.16089 0 0 7.16089 0 16C0 24.8391 7.16089 32 16 32C24.8391 32 32 24.8391 32 16C32 7.16089 24.8391 0 16 0ZM24.8889 19.3991C24.8889 22.4284 22.4284 24.8889 19.3991 24.8889H12.608C9.57867 24.8889 7.11822 22.4284 7.11822 19.3991V12.608C7.11822 9.57867 9.57867 7.11822 12.608 7.11822H19.3991C22.4284 7.11822 24.8889 9.57867 24.8889 12.608V19.3991Z" fill="#191919"/>
</svg>
