<svg width="21" height="25" viewBox="0 0 21 25" fill="none" xmlns="http://www.w3.org/2000/svg">
<path d="M20.5228 18.61C20.4275 18.1011 19.9377 17.7659 19.4287 17.8613C18.9198 17.9566 18.5845 18.4465 18.6799 18.9554C18.7507 19.3329 18.5847 19.602 18.4795 19.7288C18.3745 19.8552 18.1413 20.0674 17.7586 20.0674H3.52768C3.14494 20.0674 2.91169 19.8553 2.80674 19.7288C2.70155 19.602 2.53557 19.3329 2.60635 18.9554C2.87227 17.5364 3.40585 16.603 3.92185 15.7004C4.54857 14.6043 5.19657 13.4709 5.19657 11.7236V10.3174C5.19657 7.36112 7.59952 4.92338 10.5545 4.88049H10.7317C13.6766 4.92324 16.0716 7.36098 16.0716 10.3174V11.7236C16.0716 13.2106 16.558 14.2339 17.0139 15.0763C17.1836 15.3898 17.5061 15.5677 17.8392 15.5677C17.9899 15.5677 18.1428 15.5313 18.2846 15.4545C18.74 15.2081 18.9093 14.6391 18.6629 14.1838C18.2093 13.3456 17.9466 12.6743 17.9466 11.7236V10.3174C17.9466 8.38796 17.1992 6.56565 15.8422 5.18616C14.6792 4.00388 13.1859 3.26616 11.5716 3.06254V1.69238C11.5716 1.1746 11.1519 0.754883 10.6341 0.754883C10.1163 0.754883 9.69657 1.1746 9.69657 1.69238V3.0653C6.1126 3.5303 3.32157 6.62274 3.32157 10.3174V11.7236C3.32157 12.9727 2.86815 13.7658 2.29412 14.7699C1.72862 15.7591 1.0876 16.8803 0.763414 18.61C0.608679 19.4358 0.827585 20.28 1.36402 20.9263C1.89999 21.5721 2.68862 21.9424 3.52768 21.9424H7.83966C7.83966 23.4932 9.10135 24.7549 10.6522 24.7549C12.203 24.7549 13.4647 23.4932 13.4647 21.9424H17.7586C18.5976 21.9424 19.3863 21.5721 19.9222 20.9263C20.4586 20.28 20.6776 19.4358 20.5228 18.61ZM10.6522 22.8799C10.1353 22.8799 9.71471 22.4593 9.71471 21.9424H11.5897C11.5897 22.4593 11.1691 22.8799 10.6522 22.8799Z" fill="white"/>
</svg>
