<svg width="21" height="21" viewBox="0 0 21 21" fill="none" xmlns="http://www.w3.org/2000/svg">
<path d="M3.07847 14.4798C-0.0856285 11.3157 -0.0855656 6.16717 3.07847 3.00301C6.24264 -0.161158 11.3911 -0.161158 14.5552 3.00301C17.2395 5.68737 17.6461 9.6797 15.7759 12.7973C15.7759 12.7973 15.6416 13.0227 15.823 13.204C16.8581 14.2389 19.9634 17.3443 19.9634 17.3443C20.7875 18.1684 20.9837 19.3207 20.2529 20.0516L20.1271 20.1773C19.3962 20.9083 18.2439 20.7122 17.4198 19.8881C17.4198 19.8881 14.321 16.7892 13.2881 15.7564C13.098 15.5662 12.8727 15.7006 12.8727 15.7006C9.75517 17.5707 5.76283 17.1642 3.07847 14.4798ZM13.057 12.9815C15.3949 10.6436 15.3949 6.83942 13.0569 4.50143C10.7189 2.1635 6.91476 2.16343 4.57683 4.50143C2.23884 6.83936 2.23884 10.6436 4.57683 12.9815C6.91482 15.3194 10.7189 15.3194 13.057 12.9815Z" fill="#E0001A"/>
<path d="M12.539 8.25958C12.6478 8.25958 12.7585 8.23819 12.8651 8.19316C13.291 8.01288 13.4903 7.52142 13.31 7.09542C12.177 4.41782 9.07687 3.16126 6.39934 4.29431C5.9734 4.47458 5.77412 4.96604 5.95439 5.39205C6.13473 5.81805 6.62606 6.0172 7.05219 5.83699C8.87901 5.06398 10.9943 5.92133 11.7673 7.74815C11.9025 8.06765 12.2127 8.25958 12.539 8.25958Z" fill="#E0001A"/>
</svg>
