<svg width="17" height="17" viewBox="0 0 17 17" fill="none" xmlns="http://www.w3.org/2000/svg">
<g opacity="0.4">
<path d="M2.06901 8.67981H9.12901L8.26234 9.53981C8.19986 9.60179 8.15026 9.67552 8.11642 9.75676C8.08257 9.838 8.06515 9.92514 8.06515 10.0131C8.06515 10.1012 8.08257 10.1883 8.11642 10.2695C8.15026 10.3508 8.19986 10.4245 8.26234 10.4865C8.32432 10.549 8.39805 10.5986 8.47929 10.6324C8.56053 10.6663 8.64767 10.6837 8.73568 10.6837C8.82369 10.6837 8.91082 10.6663 8.99206 10.6324C9.0733 10.5986 9.14704 10.549 9.20901 10.4865L11.209 8.48648C11.2715 8.4245 11.3211 8.35077 11.3549 8.26953C11.3888 8.18829 11.4062 8.10115 11.4062 8.01314C11.4062 7.92514 11.3888 7.838 11.3549 7.75676C11.3211 7.67552 11.2715 7.60179 11.209 7.53981L9.20901 5.53981C9.08347 5.41428 8.91321 5.34375 8.73568 5.34375C8.55814 5.34375 8.38788 5.41428 8.26234 5.53981C8.13681 5.66535 8.06628 5.83561 8.06628 6.01314C8.06628 6.19068 8.13681 6.36094 8.26234 6.48648L9.12901 7.34648H2.06901C1.8922 7.34648 1.72263 7.41672 1.59761 7.54174C1.47258 7.66676 1.40234 7.83633 1.40234 8.01314C1.40234 8.18996 1.47258 8.35952 1.59761 8.48455C1.72263 8.60957 1.8922 8.67981 2.06901 8.67981Z" fill="#191919"/>
<path d="M14.7357 2.0131C14.7357 1.83629 14.6654 1.66672 14.5404 1.5417C14.4154 1.41667 14.2458 1.34644 14.069 1.34644H6.06901C5.8922 1.34644 5.72263 1.41667 5.59761 1.5417C5.47258 1.66672 5.40234 1.83629 5.40234 2.0131V4.0131C5.40234 4.18991 5.47258 4.35948 5.59761 4.48451C5.72263 4.60953 5.8922 4.67977 6.06901 4.67977C6.24582 4.67977 6.41539 4.60953 6.54041 4.48451C6.66544 4.35948 6.73568 4.18991 6.73568 4.0131V2.67977H13.4023V13.3464H6.73568V12.0131C6.73568 11.8363 6.66544 11.6667 6.54041 11.5417C6.41539 11.4167 6.24582 11.3464 6.06901 11.3464C5.8922 11.3464 5.72263 11.4167 5.59761 11.5417C5.47258 11.6667 5.40234 11.8363 5.40234 12.0131V14.0131C5.40234 14.1899 5.47258 14.3595 5.59761 14.4845C5.72263 14.6095 5.8922 14.6798 6.06901 14.6798H14.069C14.2458 14.6798 14.4154 14.6095 14.5404 14.4845C14.6654 14.3595 14.7357 14.1899 14.7357 14.0131V2.0131Z" fill="#191919"/>
</g>
</svg>
