<svg width="25" height="21" viewBox="0 0 25 21" fill="none" xmlns="http://www.w3.org/2000/svg">
<path d="M12.7929 3.96288C16.8369 4.00255 19.3702 3.75094 19.7124 8.23324H24.6438C24.6438 1.28947 18.5879 0.353516 12.6645 0.353516C6.74074 0.353516 0.685303 1.28947 0.685303 8.23324H5.57838C5.95697 3.66552 8.78255 3.92366 12.7929 3.96288Z" fill="white"/>
<path d="M3.13101 10.4655C4.33211 10.4655 5.33155 10.5374 5.55375 9.3559C5.58362 9.19532 5.6009 9.01326 5.6009 8.80273H5.54394H0.661133C0.661133 10.5603 1.767 10.4655 3.13101 10.4655Z" fill="white"/>
<path d="M19.7442 8.80273H19.698C19.698 9.01467 19.7162 9.19719 19.7503 9.3559C19.9846 10.4454 20.9827 10.3777 22.1796 10.3777C23.5501 10.3777 24.6611 10.4678 24.6611 8.80273H19.7442Z" fill="white"/>
<path d="M17.335 7.60593V6.90758C17.335 6.59529 16.9751 6.57568 16.5307 6.57568H15.8048C15.3609 6.57568 15.0009 6.59529 15.0009 6.90758V7.5093V7.97611H9.86606V7.5093V6.90758C9.86606 6.59529 9.50615 6.57568 9.06222 6.57568H8.33586C7.89193 6.57568 7.53202 6.59529 7.53202 6.90758V7.60593V8.21558C6.3622 9.43115 2.53437 14.6057 2.39526 15.2322L2.39713 19.4124C2.39713 19.7985 2.71129 20.1126 3.09734 20.1126H21.7697C22.1557 20.1126 22.4699 19.7985 22.4699 19.4124V15.2112C22.3322 14.6029 18.5053 9.43068 17.335 8.21511V7.60593ZM9.61305 15.7947C9.23727 15.7947 8.93244 15.4903 8.93244 15.1141C8.93244 14.7378 9.23727 14.4335 9.61305 14.4335C9.98883 14.4335 10.2937 14.7378 10.2937 15.1141C10.2937 15.4903 9.98883 15.7947 9.61305 15.7947ZM9.61305 13.4606C9.23727 13.4606 8.93244 13.1563 8.93244 12.78C8.93244 12.4038 9.23727 12.0994 9.61305 12.0994C9.98883 12.0994 10.2937 12.4038 10.2937 12.78C10.2937 13.1563 9.98883 13.4606 9.61305 13.4606ZM9.61305 11.1271C9.23727 11.1271 8.93244 10.8227 8.93244 10.4465C8.93244 10.0707 9.23727 9.76585 9.61305 9.76585C9.98883 9.76585 10.2937 10.0707 10.2937 10.4465C10.2937 10.8227 9.98883 11.1271 9.61305 11.1271ZM12.4139 15.7947C12.0381 15.7947 11.7333 15.4903 11.7333 15.1141C11.7333 14.7378 12.0381 14.4335 12.4139 14.4335C12.7901 14.4335 13.0945 14.7378 13.0945 15.1141C13.0945 15.4903 12.7901 15.7947 12.4139 15.7947ZM12.4139 13.4606C12.0381 13.4606 11.7333 13.1563 11.7333 12.78C11.7333 12.4038 12.0381 12.0994 12.4139 12.0994C12.7901 12.0994 13.0945 12.4038 13.0945 12.78C13.0945 13.1563 12.7901 13.4606 12.4139 13.4606ZM12.4139 11.1271C12.0381 11.1271 11.7333 10.8227 11.7333 10.4465C11.7333 10.0707 12.0381 9.76585 12.4139 9.76585C12.7901 9.76585 13.0945 10.0707 13.0945 10.4465C13.0945 10.8227 12.7901 11.1271 12.4139 11.1271ZM15.2147 15.7947C14.8385 15.7947 14.5341 15.4903 14.5341 15.1141C14.5341 14.7378 14.8385 14.4335 15.2147 14.4335C15.591 14.4335 15.8954 14.7378 15.8954 15.1141C15.8954 15.4903 15.591 15.7947 15.2147 15.7947ZM15.2147 13.4606C14.8385 13.4606 14.5341 13.1563 14.5341 12.78C14.5341 12.4038 14.8385 12.0994 15.2147 12.0994C15.591 12.0994 15.8954 12.4038 15.8954 12.78C15.8954 13.1563 15.591 13.4606 15.2147 13.4606ZM15.2147 11.1271C14.8385 11.1271 14.5341 10.8227 14.5341 10.4465C14.5341 10.0707 14.8385 9.76585 15.2147 9.76585C15.591 9.76585 15.8954 10.0707 15.8954 10.4465C15.8954 10.8227 15.591 11.1271 15.2147 11.1271Z" fill="white"/>
</svg>
