<svg width="25" height="25" viewBox="0 0 25 25" fill="none" xmlns="http://www.w3.org/2000/svg">
<path d="M7.16357 8.11045C7.16357 5.11503 9.59188 2.68672 12.5873 2.68672C15.5827 2.68672 18.011 5.11503 18.011 8.11045C18.011 11.1059 15.5827 13.5342 12.5873 13.5342C9.59188 13.5342 7.16357 11.1059 7.16357 8.11045Z" stroke="white" stroke-width="2" stroke-miterlimit="10" stroke-linecap="round" stroke-linejoin="round"/>
<path d="M18.7775 14.7628C19.7651 15.2016 20.5553 15.7211 21.1542 16.2473C22.0672 17.0495 22.5869 18.2084 22.5869 19.4238V20.9916C22.5869 21.9277 21.8281 22.6865 20.892 22.6865H4.28183C3.34577 22.6865 2.58691 21.9277 2.58691 20.9916V19.4238C2.58691 18.2084 3.10662 17.0495 4.01967 16.2473C5.5656 14.889 8.38505 13.534 12.5869 13.534" stroke="white" stroke-width="2" stroke-miterlimit="10" stroke-linecap="round"/>
</svg>
