<svg width="21" height="21" viewBox="0 0 21 21" fill="none" xmlns="http://www.w3.org/2000/svg">
<g clip-path="url(#clip0_307_6100)">
<path d="M20.6922 10.3372C20.5136 10.0927 16.2564 4.35254 10.8192 4.35254C5.38208 4.35254 1.12473 10.0927 0.94625 10.3369C0.777031 10.5688 0.777031 10.8833 0.94625 11.1152C1.12473 11.3596 5.38208 17.0998 10.8192 17.0998C16.2564 17.0998 20.5136 11.3595 20.6922 11.1154C20.8617 10.8835 20.8617 10.5688 20.6922 10.3372ZM10.8192 15.7811C6.81419 15.7811 3.3454 11.9712 2.31856 10.7257C3.34407 9.47911 6.8056 5.67121 10.8192 5.67121C14.8241 5.67121 18.2927 9.48044 19.3199 10.7266C18.2944 11.9732 14.8329 15.7811 10.8192 15.7811Z" fill="#191919" fill-opacity="0.72"/>
<path d="M10.8193 6.77002C8.63801 6.77002 6.86328 8.54475 6.86328 10.7261C6.86328 12.9074 8.63801 14.6821 10.8193 14.6821C13.0007 14.6821 14.7754 12.9074 14.7754 10.7261C14.7754 8.54475 13.0007 6.77002 10.8193 6.77002ZM10.8193 13.3634C9.36504 13.3634 8.18199 12.1803 8.18199 10.7261C8.18199 9.27182 9.36508 8.08873 10.8193 8.08873C12.2736 8.08873 13.4567 9.27182 13.4567 10.7261C13.4567 12.1803 12.2736 13.3634 10.8193 13.3634Z" fill="#191919" fill-opacity="0.72"/>
</g>
<defs>
<clipPath id="clip0_307_6100">
<rect width="20" height="20" fill="white" transform="translate(0.819336 0.726074)"/>
</clipPath>
</defs>
</svg>
