<svg width="14" height="12" viewBox="0 0 14 12" fill="none" xmlns="http://www.w3.org/2000/svg">
<path d="M1.47103 0.952637C1.11741 0.952637 0.778268 1.09311 0.52822 1.34316C0.278171 1.59321 0.137695 1.93235 0.137695 2.28597V4.95264C0.877695 4.95264 1.47103 5.55264 1.47103 6.28597C1.47103 6.63959 1.33055 6.97873 1.0805 7.22878C0.830456 7.47883 0.491317 7.6193 0.137695 7.6193V10.286C0.137695 10.6396 0.278171 10.9787 0.52822 11.2288C0.778268 11.4788 1.11741 11.6193 1.47103 11.6193H12.1377C12.4913 11.6193 12.8305 11.4788 13.0805 11.2288C13.3306 10.9787 13.471 10.6396 13.471 10.286V7.6193C13.1174 7.6193 12.7783 7.47883 12.5282 7.22878C12.2782 6.97873 12.1377 6.63959 12.1377 6.28597C12.1377 5.54597 12.7377 4.95264 13.471 4.95264V2.28597C13.471 1.54597 12.871 0.952637 12.1377 0.952637H1.47103ZM9.1377 2.95264L10.1377 3.95264L4.47103 9.6193L3.47103 8.6193L9.1377 2.95264ZM4.6777 2.9793C5.33103 2.9793 5.8577 3.50597 5.8577 4.1593C5.8577 4.47226 5.73337 4.7724 5.51208 4.99369C5.29079 5.21498 4.99065 5.3393 4.6777 5.3393C4.02436 5.3393 3.4977 4.81264 3.4977 4.1593C3.4977 3.84635 3.62202 3.54621 3.84331 3.32492C4.0646 3.10362 4.36474 2.9793 4.6777 2.9793ZM8.93103 7.23264C9.58436 7.23264 10.111 7.7593 10.111 8.41264C10.111 8.72559 9.98671 9.02573 9.76542 9.24702C9.54412 9.46832 9.24398 9.59264 8.93103 9.59264C8.2777 9.59264 7.75103 9.06597 7.75103 8.41264C7.75103 8.09968 7.87535 7.79954 8.09664 7.57825C8.31794 7.35696 8.61807 7.23264 8.93103 7.23264Z" fill="#191919"/>
</svg>
