<svg width="21" height="21" viewBox="0 0 21 21" fill="none" xmlns="http://www.w3.org/2000/svg">
<g clip-path="url(#clip0_307_6106)">
<path d="M17.0277 1.97266H3.43325C2.01189 1.97266 0.855469 3.12885 0.855469 4.55044V12.8699C0.855469 14.2883 2.00686 15.4427 3.4241 15.4477V19.223L8.84962 15.4477H17.0277C18.449 15.4477 19.6055 14.2913 19.6055 12.8699V4.55044C19.6055 3.12885 18.449 1.97266 17.0277 1.97266ZM18.5068 12.8699C18.5068 13.6855 17.8433 14.3491 17.0277 14.3491H8.50493L4.52273 17.1202V14.3491H3.43325C2.61763 14.3491 1.9541 13.6855 1.9541 12.8699V4.55044C1.9541 3.7347 2.61763 3.07129 3.43325 3.07129H17.0277C17.8433 3.07129 18.5068 3.7347 18.5068 4.55044V12.8699Z" fill="#191919" fill-opacity="0.72"/>
<path d="M5.87402 5.85449H14.5873V6.95312H5.87402V5.85449Z" fill="#191919" fill-opacity="0.72"/>
<path d="M5.87402 8.19824H14.5873V9.29688H5.87402V8.19824Z" fill="#191919" fill-opacity="0.72"/>
<path d="M5.87402 10.542H14.5873V11.6406H5.87402V10.542Z" fill="#191919" fill-opacity="0.72"/>
</g>
<defs>
<clipPath id="clip0_307_6106">
<rect width="20" height="20" fill="white" transform="translate(0.240234 0.625)"/>
</clipPath>
</defs>
</svg>
