<svg width="17" height="16" viewBox="0 0 17 16" fill="none" xmlns="http://www.w3.org/2000/svg">
<path d="M15.5707 11.5676C17.1168 9.39831 16.8805 6.42628 14.7687 4.49031C13.8038 3.60578 12.5737 3.05512 11.2449 2.90134C11.2366 2.89115 11.2282 2.88106 11.2189 2.8714C10.0629 1.67062 8.40215 0.981934 6.66247 0.981934C3.35187 0.981934 0.569092 3.44859 0.569092 6.60693C0.569092 7.71428 0.913061 8.77581 1.56647 9.69259L0.653686 12.5584C0.596311 12.7385 0.652748 12.9354 0.796779 13.0578C0.941061 13.1805 1.14459 13.204 1.31275 13.1185L4.08859 11.707C4.65865 11.9525 5.26315 12.1136 5.88915 12.1868C7.09672 13.4567 8.76644 14.1069 10.4747 14.1069C11.3627 14.1069 12.2475 13.926 13.0485 13.582L15.8244 14.9935C15.8917 15.0277 15.9644 15.0444 16.0368 15.0444C16.3531 15.0444 16.5799 14.7362 16.4835 14.4334L15.5707 11.5676ZM4.27778 10.7638C4.1465 10.7015 3.99378 10.7036 3.86425 10.7694L1.88715 11.7747L2.53278 9.74768C2.57978 9.60009 2.55087 9.43884 2.4555 9.31681C1.83469 8.52212 1.50653 7.58509 1.50653 6.60693C1.50653 4.02225 3.81947 1.91943 6.66247 1.91943C7.80734 1.91943 8.9095 2.26628 9.80353 2.89087C6.79265 3.19362 4.38134 5.54531 4.38134 8.48193C4.38134 9.39531 4.61547 10.2746 5.05687 11.0624C4.78962 10.9828 4.52934 10.8833 4.27778 10.7638ZM13.2729 12.6444C13.1453 12.5795 12.9924 12.5756 12.8594 12.6388C12.1286 12.986 11.304 13.1694 10.4747 13.1694C7.63172 13.1694 5.31878 11.0666 5.31878 8.48193C5.31878 5.89725 7.63172 3.79443 10.4747 3.79443C13.3177 3.79443 15.6307 5.89725 15.6307 8.48193C15.6307 9.46009 15.3025 10.3971 14.6817 11.1918C14.5863 11.3138 14.5574 11.4751 14.6044 11.6227L15.25 13.6497L13.2729 12.6444Z" fill="#191919"/>
</svg>
