<svg width="14" height="14" viewBox="0 0 14 14" fill="none" xmlns="http://www.w3.org/2000/svg">
<path d="M10.1377 1.95296V0.619629H3.47103V1.95296H0.137695V6.61963C0.137695 7.35296 0.737695 7.95296 1.47103 7.95296H3.5377C3.80436 9.25963 4.83103 10.2863 6.1377 10.553V12.0063C4.1377 12.313 4.1377 13.953 4.1377 13.953H9.47103C9.47103 13.953 9.47103 12.313 7.47103 12.0063V10.553C8.7777 10.2863 9.80436 9.25963 10.071 7.95296H12.1377C12.871 7.95296 13.471 7.35296 13.471 6.61963V1.95296H10.1377ZM1.47103 6.61963V3.2863H3.47103V6.61963H1.47103ZM12.1377 6.61963H10.1377V3.2863H12.1377V6.61963Z" fill="#191919"/>
</svg>
