<svg width="19" height="21" viewBox="0 0 19 21" fill="none" xmlns="http://www.w3.org/2000/svg">
<path d="M16.3383 6.94736C16.3383 6.94736 14.3278 7.88248 14.0672 5.82279C13.8458 4.07275 12.653 3.56924 12.653 3.56924L11.9797 4.17236C11.1221 4.94045 9.89744 4.62943 9.37471 3.50729C9.02904 2.76529 8.69146 1.86236 8.50408 0.883301C8.50408 0.883301 4.83799 1.56182 4.35541 5.5274C4.20568 6.75791 3.22436 7.58369 2.21604 7.31127C1.53432 8.51104 1.14014 9.89154 1.14014 11.3701C1.14014 15.9222 4.83029 19.6123 9.38232 19.6123C13.9344 19.6123 17.6245 15.9222 17.6245 11.3701C17.6245 9.74256 17.1526 8.22529 16.3383 6.94736Z" stroke="#191919" stroke-opacity="0.72" stroke-width="1.1" stroke-miterlimit="10"/>
<path d="M5.72461 15.614L13.0402 8.29834" stroke="#191919" stroke-opacity="0.72" stroke-width="1.1" stroke-miterlimit="10"/>
<path d="M6.89648 10.6421C7.54369 10.6421 8.06836 10.1174 8.06836 9.47021C8.06836 8.82301 7.54369 8.29834 6.89648 8.29834C6.24928 8.29834 5.72461 8.82301 5.72461 9.47021C5.72461 10.1174 6.24928 10.6421 6.89648 10.6421Z" stroke="#191919" stroke-opacity="0.72" stroke-width="1.5" stroke-miterlimit="10"/>
<path d="M11.8682 15.6138C12.5154 15.6138 13.04 15.0891 13.04 14.4419C13.04 13.7947 12.5154 13.27 11.8682 13.27C11.221 13.27 10.6963 13.7947 10.6963 14.4419C10.6963 15.0891 11.221 15.6138 11.8682 15.6138Z" stroke="#191919" stroke-opacity="0.72" stroke-width="1.5" stroke-miterlimit="10"/>
<path d="M1.72607 3.12793H2.89795" stroke="#191919" stroke-opacity="0.72" stroke-width="1.5" stroke-miterlimit="10"/>
<path d="M13.5229 0.78418H12.3511" stroke="#191919" stroke-opacity="0.72" stroke-width="1.5" stroke-miterlimit="10"/>
<path d="M15.8667 1.95605H14.6948" stroke="#191919" stroke-opacity="0.72" stroke-width="1.5" stroke-miterlimit="10"/>
</svg>
