<svg width="13" height="15" viewBox="0 0 13 15" fill="none" xmlns="http://www.w3.org/2000/svg">
<path d="M6.80469 8.95264C5.92063 8.95264 5.07279 8.60145 4.44766 7.97633C3.82254 7.3512 3.47135 6.50336 3.47135 5.6193H4.80469C4.80469 6.14974 5.0154 6.65844 5.39047 7.03352C5.76555 7.40859 6.27425 7.6193 6.80469 7.6193C7.33512 7.6193 7.84383 7.40859 8.2189 7.03352C8.59397 6.65844 8.80469 6.14974 8.80469 5.6193H10.138C10.138 6.50336 9.78683 7.3512 9.16171 7.97633C8.53659 8.60145 7.68874 8.95264 6.80469 8.95264ZM6.80469 2.28597C7.33512 2.28597 7.84383 2.49668 8.2189 2.87176C8.59397 3.24683 8.80469 3.75554 8.80469 4.28597H4.80469C4.80469 3.75554 5.0154 3.24683 5.39047 2.87176C5.76555 2.49668 6.27425 2.28597 6.80469 2.28597ZM11.4714 4.28597H10.138C10.138 3.84823 10.0518 3.41478 9.88429 3.01036C9.71677 2.60594 9.47124 2.23848 9.16171 1.92895C8.85218 1.61942 8.48472 1.37389 8.0803 1.20637C7.67588 1.03886 7.24243 0.952637 6.80469 0.952637C5.92063 0.952637 5.07279 1.30383 4.44766 1.92895C3.82254 2.55407 3.47135 3.40192 3.47135 4.28597H2.13802C1.39802 4.28597 0.804688 4.8793 0.804688 5.6193V13.6193C0.804688 13.9729 0.945163 14.3121 1.19521 14.5621C1.44526 14.8122 1.7844 14.9526 2.13802 14.9526H11.4714C11.825 14.9526 12.1641 14.8122 12.4142 14.5621C12.6642 14.3121 12.8047 13.9729 12.8047 13.6193V5.6193C12.8047 4.8793 12.2047 4.28597 11.4714 4.28597Z" fill="#191919"/>
</svg>
