<svg width="33" height="32" viewBox="0 0 33 32" fill="none" xmlns="http://www.w3.org/2000/svg">
<g opacity="0.4" clip-path="url(#clip0_307_5751)">
<path fill-rule="evenodd" clip-rule="evenodd" d="M9.83366 10.3335C8.91318 10.3335 8.16699 11.0797 8.16699 12.0002C8.16699 12.9206 8.91318 13.6668 9.83366 13.6668C10.7541 13.6668 11.5003 12.9206 11.5003 12.0002C11.5003 11.0797 10.7541 10.3335 9.83366 10.3335ZM6.16699 12.0002C6.16699 9.97512 7.80862 8.3335 9.83366 8.3335C11.8587 8.3335 13.5003 9.97512 13.5003 12.0002C13.5003 14.0252 11.8587 15.6668 9.83366 15.6668C7.80862 15.6668 6.16699 14.0252 6.16699 12.0002Z" fill="#191919"/>
<path fill-rule="evenodd" clip-rule="evenodd" d="M14.0275 20.8064C12.3611 22.6724 10.6232 25.2246 8.78577 28.4905C8.51496 28.9718 7.90523 29.1425 7.42389 28.8717C6.94256 28.6008 6.77191 27.9912 7.04271 27.5098C8.91864 24.1756 10.7374 21.4878 12.5357 19.4742C14.3293 17.4656 16.1513 16.0726 18.0453 15.4168C19.9757 14.7482 21.9032 14.8734 23.8036 15.7593C25.6707 16.6296 27.4796 18.2172 29.2761 20.4216C29.6249 20.8497 29.5608 21.4797 29.1327 21.8285C28.7045 22.1774 28.0747 22.1132 27.7257 21.685C26.0289 19.6029 24.4461 18.2654 22.9587 17.572C21.5045 16.8942 20.1144 16.8168 18.6999 17.3066C17.2488 17.8092 15.6983 18.9354 14.0275 20.8064Z" fill="#191919"/>
<path fill-rule="evenodd" clip-rule="evenodd" d="M2.68848 4.85491C3.87624 3.66715 5.48716 3 7.16683 3H16.8735C17.4258 3 17.8735 3.44772 17.8735 4C17.8735 4.55228 17.4258 5 16.8735 5H7.16683C6.01752 5 4.91532 5.45649 4.1027 6.26912C3.29006 7.08176 2.8335 8.18404 2.8335 9.33333V22.6667C2.8335 23.8159 3.29003 24.918 4.1027 25.7307C4.91538 26.5435 6.01759 27 7.16683 27H23.1668C24.316 27 25.4183 26.5435 26.231 25.7307C27.0436 24.918 27.5002 23.8159 27.5002 22.6667V16C27.5002 15.4477 27.9479 15 28.5002 15C29.0524 15 29.5002 15.4477 29.5002 16V22.6667C29.5002 24.3464 28.833 25.9572 27.6452 27.1449C26.4575 28.3327 24.8466 29 23.1668 29H7.16683C5.48708 29 3.87619 28.3327 2.68848 27.1449C1.50076 25.9572 0.833496 24.3464 0.833496 22.6667V9.33333C0.833496 7.65365 1.50074 6.04265 2.68848 4.85491Z" fill="#191919"/>
<path fill-rule="evenodd" clip-rule="evenodd" d="M25.5 0.106689C26.0523 0.106689 26.5 0.554404 26.5 1.10669V11.7734C26.5 12.3256 26.0523 12.7734 25.5 12.7734C24.9477 12.7734 24.5 12.3256 24.5 11.7734V1.10669C24.5 0.554404 24.9477 0.106689 25.5 0.106689Z" fill="#191919"/>
<path fill-rule="evenodd" clip-rule="evenodd" d="M24.7939 0.399581C25.1845 0.00905881 25.8175 0.00905881 26.2081 0.399581L30.4747 4.66625C30.8653 5.05677 30.8653 5.68993 30.4747 6.08047C30.0842 6.47099 29.4511 6.47099 29.0606 6.08047L25.501 2.52089L21.9414 6.08047C21.5509 6.47099 20.9177 6.47099 20.5273 6.08047C20.1367 5.68993 20.1367 5.05677 20.5273 4.66625L24.7939 0.399581Z" fill="#191919"/>
</g>
<defs>
<clipPath id="clip0_307_5751">
<rect width="32" height="32" fill="white" transform="translate(0.5)"/>
</clipPath>
</defs>
</svg>
