<svg width="124" height="23" viewBox="0 0 124 23" fill="none" xmlns="http://www.w3.org/2000/svg">
<path d="M0.210938 0.585938H123.143L115.688 11.7684L123.143 22.9509H0.210938V0.585938Z" fill="#5200FF"/>
<path d="M10.8109 17.7686V7.58674H17.3336V9.1329H12.6554V11.8971H16.8862V13.4433H12.6554V17.7686H10.8109ZM19.014 17.7686V7.58674H22.8322C23.6144 7.58674 24.2707 7.72263 24.801 7.99441C25.3346 8.26619 25.7373 8.64734 26.0091 9.13787C26.2842 9.62509 26.4217 10.1935 26.4217 10.8431C26.4217 11.4961 26.2825 12.0628 26.0041 12.5434C25.729 13.0207 25.323 13.3902 24.786 13.6521C24.2491 13.9106 23.5895 14.0399 22.8074 14.0399H20.0879V12.5086H22.5588C23.0162 12.5086 23.3907 12.4456 23.6824 12.3197C23.974 12.1904 24.1895 12.0032 24.3287 11.7579C24.4712 11.5093 24.5424 11.2044 24.5424 10.8431C24.5424 10.4819 24.4712 10.1736 24.3287 9.91841C24.1861 9.65989 23.969 9.46434 23.6774 9.33176C23.3857 9.19587 23.0095 9.12793 22.5488 9.12793H20.8585V17.7686H19.014ZM24.274 13.1549L26.7946 17.7686H24.7363L22.2605 13.1549H24.274ZM37.2175 12.6776C37.2175 13.7747 37.012 14.7143 36.601 15.4965C36.1934 16.2754 35.6365 16.872 34.9306 17.2863C34.2279 17.7006 33.4308 17.9078 32.5392 17.9078C31.6477 17.9078 30.8489 17.7006 30.1429 17.2863C29.4403 16.8687 28.8835 16.2704 28.4725 15.4916C28.0648 14.7094 27.861 13.7714 27.861 12.6776C27.861 11.5806 28.0648 10.6426 28.4725 9.86373C28.8835 9.08153 29.4403 8.48328 30.1429 8.06898C30.8489 7.65468 31.6477 7.44753 32.5392 7.44753C33.4308 7.44753 34.2279 7.65468 34.9306 8.06898C35.6365 8.48328 36.1934 9.08153 36.601 9.86373C37.012 10.6426 37.2175 11.5806 37.2175 12.6776ZM35.3631 12.6776C35.3631 11.9054 35.2421 11.2541 35.0002 10.7238C34.7615 10.1902 34.4301 9.78749 34.0059 9.51571C33.5816 9.24062 33.0927 9.10307 32.5392 9.10307C31.9857 9.10307 31.4969 9.24062 31.0726 9.51571C30.6484 9.78749 30.3153 10.1902 30.0733 10.7238C29.8347 11.2541 29.7154 11.9054 29.7154 12.6776C29.7154 13.4499 29.8347 14.1028 30.0733 14.6365C30.3153 15.1668 30.6484 15.5695 31.0726 15.8445C31.4969 16.1163 31.9857 16.2522 32.5392 16.2522C33.0927 16.2522 33.5816 16.1163 34.0059 15.8445C34.4301 15.5695 34.7615 15.1668 35.0002 14.6365C35.2421 14.1028 35.3631 13.4499 35.3631 12.6776ZM38.9613 7.58674H41.2184L44.2411 14.9646H44.3604L47.3832 7.58674H49.6403V17.7686H47.8704V10.7735H47.7759L44.962 17.7387H43.6396L40.8256 10.7586H40.7312V17.7686H38.9613V7.58674ZM54.674 9.1329V7.58674H62.7976V9.1329H59.6506V17.7686H57.821V9.1329H54.674ZM64.3636 17.7686V7.58674H66.2081V11.8971H70.9261V7.58674H72.7756V17.7686H70.9261V13.4433H66.2081V17.7686H64.3636ZM74.7816 17.7686V7.58674H78.5998C79.382 7.58674 80.0382 7.72263 80.5685 7.99441C81.1022 8.26619 81.5049 8.64734 81.7766 9.13787C82.0517 9.62509 82.1893 10.1935 82.1893 10.8431C82.1893 11.4961 82.0501 12.0628 81.7717 12.5434C81.4966 13.0207 81.0906 13.3902 80.5536 13.6521C80.0167 13.9106 79.3571 14.0399 78.5749 14.0399H75.8555V12.5086H78.3263C78.7837 12.5086 79.1583 12.4456 79.4499 12.3197C79.7416 12.1904 79.957 12.0032 80.0962 11.7579C80.2388 11.5093 80.31 11.2044 80.31 10.8431C80.31 10.4819 80.2388 10.1736 80.0962 9.91841C79.9537 9.65989 79.7366 9.46434 79.445 9.33176C79.1533 9.19587 78.7771 9.12793 78.3164 9.12793H76.6261V17.7686H74.7816ZM80.0415 13.1549L82.5621 17.7686H80.5039L78.0281 13.1549H80.0415ZM83.8871 17.7686V7.58674H90.5092V9.1329H85.7315V11.8971H90.1662V13.4433H85.7315V16.2224H90.549V17.7686H83.8871ZM93.6985 17.7686H91.7298L95.3143 7.58674H97.5913L101.181 17.7686H99.212L96.4925 9.6748H96.413L93.6985 17.7686ZM93.7631 13.7764H99.1325V15.2579H93.7631V13.7764ZM105.972 17.7686H102.522V7.58674H106.042C107.053 7.58674 107.921 7.79057 108.647 8.19824C109.376 8.6026 109.936 9.18427 110.327 9.94327C110.718 10.7023 110.914 11.6104 110.914 12.6677C110.914 13.7283 110.717 14.6398 110.322 15.4021C109.931 16.1644 109.366 16.7494 108.627 17.157C107.891 17.5647 107.006 17.7686 105.972 17.7686ZM104.366 16.1727H105.883C106.592 16.1727 107.184 16.0434 107.657 15.7849C108.131 15.5231 108.488 15.1336 108.726 14.6166C108.965 14.0962 109.084 13.4466 109.084 12.6677C109.084 11.8888 108.965 11.2425 108.726 10.7288C108.488 10.2117 108.135 9.82561 107.667 9.5704C107.203 9.31188 106.627 9.18262 105.937 9.18262H104.366V16.1727Z" fill="white"/>
</svg>
