<svg width="55" height="55" viewBox="0 0 55 55" fill="none" xmlns="http://www.w3.org/2000/svg">
<path d="M27.6729 54.3833C42.5845 54.3833 54.6729 42.295 54.6729 27.3833C54.6729 12.4716 42.5845 0.383301 27.6729 0.383301C12.7612 0.383301 0.672852 12.4716 0.672852 27.3833C0.672852 42.295 12.7612 54.3833 27.6729 54.3833Z" fill="url(#paint0_linear_601_1358)"/>
<path d="M38.9149 33.9409H16.4315C14.8818 33.9409 13.6211 35.2016 13.6211 36.7514V40.4987C13.6211 42.0484 14.8818 43.3091 16.4315 43.3091H38.915C40.4648 43.3091 41.7255 42.0484 41.7255 40.4987V36.7514C41.7253 35.2016 40.4647 33.9409 38.9149 33.9409ZM20.1787 39.5619H18.3051C17.7872 39.5619 17.3683 39.1429 17.3683 38.6251C17.3683 38.1074 17.7873 37.6883 18.3051 37.6883H20.1787C20.6966 37.6883 21.1155 38.1074 21.1155 38.6251C21.1155 39.1429 20.6966 39.5619 20.1787 39.5619ZM25.7996 39.5619H23.9259C23.4081 39.5619 22.9891 39.1429 22.9891 38.6251C22.9891 38.1074 23.4082 37.6883 23.9259 37.6883H25.7996C26.3174 37.6883 26.7363 38.1074 26.7363 38.6251C26.7363 39.1429 26.3174 39.5619 25.7996 39.5619ZM31.4204 39.5619H29.5468C29.0289 39.5619 28.61 39.1429 28.61 38.6251C28.61 38.1074 29.029 37.6883 29.5468 37.6883H31.4204C31.9383 37.6883 32.3572 38.1074 32.3572 38.6251C32.3572 39.1429 31.9383 39.5619 31.4204 39.5619ZM37.0413 39.5619H35.1676C34.6498 39.5619 34.2308 39.1429 34.2308 38.6251C34.2308 38.1074 34.6499 37.6883 35.1676 37.6883H37.0413C37.5591 37.6883 37.978 38.1074 37.978 38.6251C37.978 39.1429 37.5591 39.5619 37.0413 39.5619ZM20.1787 20.8256H21.7739C22.7898 22.9492 24.6309 24.1788 26.7364 24.4811V30.1937H23.926C23.4082 30.1937 22.9892 30.6128 22.9892 31.1305C22.9892 31.6482 23.4083 32.0673 23.926 32.0673H31.4205C31.9384 32.0673 32.3573 31.6482 32.3573 31.1305C32.3573 30.6128 31.9383 30.1937 31.4205 30.1937H28.6101V24.4782C30.8084 24.1594 32.6465 22.7613 33.5731 20.8256H35.1677C36.7175 20.8256 37.9781 19.5649 37.9781 18.0151V16.1415C37.9781 15.6236 37.5591 15.2047 37.0414 15.2047H34.2309V13.3311H35.1677C35.6855 13.3311 36.1045 12.912 36.1045 12.3943C36.1045 11.8765 35.6855 11.4575 35.1677 11.4575C34.8361 11.4575 19.9894 11.4575 20.1787 11.4575C19.661 11.4575 19.2419 11.8765 19.2419 12.3943C19.2419 12.912 19.661 13.3311 20.1787 13.3311H21.1155V15.2047H18.3051C17.7872 15.2047 17.3683 15.6237 17.3683 16.1415V18.0151C17.3683 19.565 18.629 20.8256 20.1787 20.8256ZM34.2309 18.0151V17.0784H36.1046V18.0151C36.1046 18.532 35.6847 18.9519 35.1678 18.9519H34.1363C34.181 18.6433 34.2309 18.336 34.2309 18.0151ZM19.2419 17.0784H21.1156V18.0151C21.1156 18.3332 21.163 18.6426 21.2074 18.9519H20.1788C19.6619 18.9519 19.242 18.532 19.242 18.0151L19.2419 17.0784ZM35.1677 30.1937C35.6855 30.1937 36.1045 29.7747 36.1045 29.257V28.3202H37.0413C37.5591 28.3202 37.978 27.9012 37.978 27.3834C37.978 26.8657 37.559 26.4466 37.0413 26.4466H36.1045V25.5099C36.1045 24.992 35.6855 24.5731 35.1677 24.5731C34.6499 24.5731 34.2309 24.9921 34.2309 25.5099V26.4466H33.2942C32.7763 26.4466 32.3573 26.8657 32.3573 27.3834C32.3573 27.9012 32.7763 28.3202 33.2942 28.3202H34.2309V29.257C34.2309 29.7747 34.6499 30.1937 35.1677 30.1937ZM18.3052 26.4465H19.2419V27.3833C19.2419 27.9012 19.661 28.3201 20.1787 28.3201C20.6966 28.3201 21.1155 27.901 21.1155 27.3833V26.4465H22.0523C22.5701 26.4465 22.9891 26.0275 22.9891 25.5098C22.9891 24.992 22.5701 24.573 22.0523 24.573H21.1155V23.6362C21.1155 23.1184 20.6965 22.6994 20.1787 22.6994C19.661 22.6994 19.2419 23.1185 19.2419 23.6362V24.573H18.3052C17.7873 24.573 17.3684 24.992 17.3684 25.5098C17.3684 26.0275 17.7873 26.4465 18.3052 26.4465Z" fill="url(#paint1_linear_601_1358)"/>
<defs>
<linearGradient id="paint0_linear_601_1358" x1="27.6729" y1="54.3833" x2="27.6729" y2="0.383301" gradientUnits="userSpaceOnUse">
<stop stop-color="#FFE59A"/>
<stop offset="1" stop-color="#FFFFD5"/>
</linearGradient>
<linearGradient id="paint1_linear_601_1358" x1="27.6733" y1="43.3091" x2="27.6733" y2="11.4575" gradientUnits="userSpaceOnUse">
<stop stop-color="#FFDE00"/>
<stop offset="1" stop-color="#FD5900"/>
</linearGradient>
</defs>
</svg>
