<svg width="15" height="14" viewBox="0 0 15 14" fill="none" xmlns="http://www.w3.org/2000/svg">
<path d="M0.537842 12.8926C0.537842 13.1515 0.747681 13.3613 1.00659 13.3613H3.81909C4.26978 13.3613 4.67139 13.1479 4.92896 12.8171C6.07153 13.1781 7.25757 13.3613 8.45728 13.3613H12.2566C13.032 13.3613 13.6628 12.7305 13.6628 11.9551C13.6628 11.7721 13.6273 11.5973 13.5635 11.4368C14.1602 11.2742 14.6003 10.7277 14.6003 10.0801C14.6003 9.72021 14.4642 9.3916 14.2411 9.14258C14.4644 8.89355 14.6003 8.56494 14.6003 8.20508C14.6003 7.84521 14.4642 7.5166 14.2411 7.26758C14.4644 7.01855 14.6003 6.68994 14.6003 6.33008C14.6003 5.55469 13.9695 4.92383 13.1941 4.92383H10.6283C10.6647 4.83765 10.7023 4.75024 10.7406 4.66138C11.025 4.00183 11.3191 3.31982 11.3191 2.58008C11.3191 1.28442 10.2711 0.205078 8.97534 0.205078C8.75195 0.205078 8.55957 0.362793 8.51575 0.581909L8.27637 1.77881C7.96191 3.35083 7.61462 3.52881 6.32251 4.19092C5.98096 4.36584 5.57971 4.57153 5.11145 4.8385C4.89587 4.33789 4.39783 3.98633 3.81909 3.98633H1.00659C0.747681 3.98633 0.537842 4.19617 0.537842 4.45508V12.8926ZM6.74988 5.02527C7.44958 4.66675 7.95496 4.40784 8.35071 3.96948C8.75537 3.52112 9.00024 2.9397 9.19568 1.96265L9.34888 1.19629C9.93677 1.36841 10.3816 1.9325 10.3816 2.58008C10.3816 3.12622 10.1265 3.7179 9.87964 4.29016C9.79016 4.4978 9.69885 4.71008 9.61755 4.92383H8.97534C8.71643 4.92383 8.50659 5.13367 8.50659 5.39258C8.50659 5.65149 8.71643 5.86133 8.97534 5.86133H13.1941C13.4525 5.86133 13.6628 6.07166 13.6628 6.33008C13.6628 6.5885 13.4525 6.79883 13.1941 6.79883H12.2566C11.9977 6.79883 11.7878 7.00867 11.7878 7.26758C11.7878 7.52649 11.9977 7.73633 12.2566 7.73633H13.1941C13.4525 7.73633 13.6628 7.94666 13.6628 8.20508C13.6628 8.4635 13.4525 8.67383 13.1941 8.67383H12.2566C11.9977 8.67383 11.7878 8.88367 11.7878 9.14258C11.7878 9.40149 11.9977 9.61133 12.2566 9.61133H13.1941C13.4525 9.61133 13.6628 9.82166 13.6628 10.0801C13.6628 10.3385 13.4525 10.5488 13.1941 10.5488H12.2566C11.9977 10.5488 11.7878 10.7587 11.7878 11.0176C11.7878 11.2765 11.9977 11.4863 12.2566 11.4863C12.515 11.4863 12.7253 11.6967 12.7253 11.9551C12.7253 12.2135 12.515 12.4238 12.2566 12.4238H8.45728C7.35852 12.4238 6.27222 12.2568 5.22534 11.9277V5.8573C5.82971 5.49695 6.33521 5.23779 6.74988 5.02527ZM1.47534 4.92383H3.81909C4.07751 4.92383 4.28784 5.13416 4.28784 5.39258V11.9551C4.28784 12.2135 4.07751 12.4238 3.81909 12.4238H1.47534V4.92383Z" fill="#191919"/>
</svg>
