<svg width="33" height="32" viewBox="0 0 33 32" fill="none" xmlns="http://www.w3.org/2000/svg">
<path d="M16.504 0H16.496C7.674 0 0.5 7.176 0.5 16C0.5 19.5 1.628 22.744 3.546 25.378L1.552 31.322L7.702 29.356C10.232 31.032 13.25 32 16.504 32C25.326 32 32.5 24.822 32.5 16C32.5 7.178 25.326 0 16.504 0ZM25.814 22.594C25.428 23.684 23.896 24.588 22.674 24.852C21.838 25.03 20.746 25.172 17.07 23.648C12.368 21.7 9.34 16.922 9.104 16.612C8.878 16.302 7.204 14.082 7.204 11.786C7.204 9.49 8.37 8.372 8.84 7.892C9.226 7.498 9.864 7.318 10.476 7.318C10.674 7.318 10.852 7.328 11.012 7.336C11.482 7.356 11.718 7.384 12.028 8.126C12.414 9.056 13.354 11.352 13.466 11.588C13.58 11.824 13.694 12.144 13.534 12.454C13.384 12.774 13.252 12.916 13.016 13.188C12.78 13.46 12.556 13.668 12.32 13.96C12.104 14.214 11.86 14.486 12.132 14.956C12.404 15.416 13.344 16.95 14.728 18.182C16.514 19.772 17.962 20.28 18.48 20.496C18.866 20.656 19.326 20.618 19.608 20.318C19.966 19.932 20.408 19.292 20.858 18.662C21.178 18.21 21.582 18.154 22.006 18.314C22.438 18.464 24.724 19.594 25.194 19.828C25.664 20.064 25.974 20.176 26.088 20.374C26.2 20.572 26.2 21.502 25.814 22.594Z" fill="#191919"/>
</svg>
